<svg id="visual" viewBox="0 0 900 600" width="900" height="600" xmlns="http://www.w3.org/2000/svg" xmlns:xlink="http://www.w3.org/1999/xlink" version="1.1"><path d="M0 418L129 441L257 428L386 428L514 403L643 416L771 421L900 374L900 601L771 601L643 601L514 601L386 601L257 601L129 601L0 601Z" fill="#84a98c"></path><path d="M0 454L129 458L257 461L386 404L514 423L643 455L771 436L900 414L900 601L771 601L643 601L514 601L386 601L257 601L129 601L0 601Z" fill="#769d85"></path><path d="M0 487L129 469L257 452L386 468L514 493L643 467L771 448L900 495L900 601L771 601L643 601L514 601L386 601L257 601L129 601L0 601Z" fill="#69917e"></path><path d="M0 511L129 504L257 509L386 512L514 483L643 522L771 494L900 519L900 601L771 601L643 601L514 601L386 601L257 601L129 601L0 601Z" fill="#5d8577"></path><path d="M0 541L129 546L257 545L386 536L514 558L643 557L771 554L900 541L900 601L771 601L643 601L514 601L386 601L257 601L129 601L0 601Z" fill="#52796f"></path></svg>