<svg id="visual" viewBox="0 0 900 600" width="900" height="600" xmlns="http://www.w3.org/2000/svg" xmlns:xlink="http://www.w3.org/1999/xlink" version="1.1"><path d="M0 433L100 372L200 359L300 359L400 415L500 436L600 395L700 362L800 357L900 391L900 601L800 601L700 601L600 601L500 601L400 601L300 601L200 601L100 601L0 601Z" fill="#a35648"></path><path d="M0 415L100 428L200 420L300 396L400 462L500 425L600 408L700 397L800 449L900 452L900 601L800 601L700 601L600 601L500 601L400 601L300 601L200 601L100 601L0 601Z" fill="#bc6f54"></path><path d="M0 497L100 450L200 455L300 470L400 454L500 473L600 500L700 463L800 468L900 493L900 601L800 601L700 601L600 601L500 601L400 601L300 601L200 601L100 601L0 601Z" fill="#d38961"></path><path d="M0 503L100 516L200 495L300 501L400 494L500 539L600 511L700 486L800 513L900 495L900 601L800 601L700 601L600 601L500 601L400 601L300 601L200 601L100 601L0 601Z" fill="#eaa46f"></path><path d="M0 560L100 544L200 545L300 547L400 558L500 573L600 574L700 574L800 529L900 561L900 601L800 601L700 601L600 601L500 601L400 601L300 601L200 601L100 601L0 601Z" fill="#ffc07f"></path></svg>